<svg xmlns="http://www.w3.org/2000/svg" width="21" height="21" viewBox="0 0 21 21" fill="none">
<path d="M14.7832 19.5799C13.8415 19.5799 12.8499 19.3549 11.8249 18.9216C10.8249 18.4966 9.81654 17.9133 8.8332 17.2049C7.8582 16.4883 6.91654 15.6883 6.02487 14.8133C5.14154 13.9216 4.34154 12.9799 3.6332 12.0133C2.91654 11.0133 2.34154 10.0133 1.9332 9.0466C1.49987 8.01327 1.2832 7.01327 1.2832 6.0716C1.2832 5.4216 1.39987 4.80494 1.62487 4.22994C1.8582 3.63827 2.2332 3.08827 2.74154 2.61327C3.3832 1.97994 4.11654 1.66327 4.89987 1.66327C5.22487 1.66327 5.5582 1.73827 5.84154 1.8716C6.16654 2.0216 6.44154 2.2466 6.64154 2.5466L8.57487 5.2716C8.74987 5.51327 8.8832 5.7466 8.97487 5.97994C9.0832 6.22994 9.14154 6.47994 9.14154 6.7216C9.14154 7.03827 9.04987 7.3466 8.87487 7.63827C8.74987 7.86327 8.5582 8.10494 8.31654 8.3466L7.74987 8.93827C7.7582 8.96327 7.76654 8.97994 7.77487 8.9966C7.87487 9.1716 8.07487 9.4716 8.4582 9.9216C8.86654 10.3883 9.24987 10.8133 9.6332 11.2049C10.1249 11.6883 10.5332 12.0716 10.9165 12.3883C11.3915 12.7883 11.6999 12.9883 11.8832 13.0799L11.8665 13.1216L12.4749 12.5216C12.7332 12.2633 12.9832 12.0716 13.2249 11.9466C13.6832 11.6633 14.2665 11.6133 14.8499 11.8549C15.0665 11.9466 15.2999 12.0716 15.5499 12.2466L18.3165 14.2133C18.6249 14.4216 18.8499 14.6883 18.9832 15.0049C19.1082 15.3216 19.1665 15.6133 19.1665 15.9049C19.1665 16.3049 19.0749 16.7049 18.8999 17.0799C18.7249 17.4549 18.5082 17.7799 18.2332 18.0799C17.7582 18.6049 17.2415 18.9799 16.6415 19.2216C16.0665 19.4549 15.4415 19.5799 14.7832 19.5799ZM4.89987 2.91327C4.44154 2.91327 4.01654 3.11327 3.6082 3.51327C3.22487 3.8716 2.9582 4.26327 2.79154 4.68827C2.61654 5.1216 2.5332 5.57994 2.5332 6.0716C2.5332 6.8466 2.71654 7.68827 3.0832 8.55494C3.4582 9.43827 3.9832 10.3549 4.64987 11.2716C5.31654 12.1883 6.07487 13.0799 6.9082 13.9216C7.74154 14.7466 8.64154 15.5133 9.56654 16.1883C10.4665 16.8466 11.3915 17.3799 12.3082 17.7633C13.7332 18.3716 15.0665 18.5133 16.1665 18.0549C16.5915 17.8799 16.9665 17.6133 17.3082 17.2299C17.4999 17.0216 17.6499 16.7966 17.7749 16.5299C17.8749 16.3216 17.9249 16.1049 17.9249 15.8883C17.9249 15.7549 17.8999 15.6216 17.8332 15.4716C17.8082 15.4216 17.7582 15.3299 17.5999 15.2216L14.8332 13.2549C14.6665 13.1383 14.5165 13.0549 14.3749 12.9966C14.1915 12.9216 14.1165 12.8466 13.8332 13.0216C13.6665 13.1049 13.5165 13.2299 13.3499 13.3966L12.7165 14.0216C12.3915 14.3383 11.8915 14.4133 11.5082 14.2716L11.2832 14.1716C10.9415 13.9883 10.5415 13.7049 10.0999 13.3299C9.69987 12.9883 9.26654 12.5883 8.74154 12.0716C8.3332 11.6549 7.92487 11.2133 7.49987 10.7216C7.1082 10.2633 6.82487 9.8716 6.64987 9.5466L6.54987 9.2966C6.49987 9.10494 6.4832 8.9966 6.4832 8.87994C6.4832 8.57994 6.59154 8.31327 6.79987 8.10494L7.42487 7.45494C7.59154 7.28827 7.71654 7.12994 7.79987 6.98827C7.86654 6.87994 7.89154 6.78827 7.89154 6.70494C7.89154 6.63827 7.86654 6.53827 7.82487 6.43827C7.76654 6.30494 7.67487 6.15494 7.5582 5.9966L5.62487 3.26327C5.54154 3.1466 5.44154 3.06327 5.31654 3.00494C5.1832 2.9466 5.04154 2.91327 4.89987 2.91327ZM11.8665 13.1299L11.7332 13.6966L11.9582 13.1133C11.9165 13.1049 11.8832 13.1133 11.8665 13.1299Z" fill="white"/>
</svg>