<svg width="22" height="20" viewBox="0 0 22 20" fill="none" xmlns="http://www.w3.org/2000/svg">
<path d="M1.42138 6.89568C2.08674 6.22932 2.94664 5.68655 3.97752 5.2674C4.98484 4.86006 6.11009 4.55868 7.30613 4.36333C8.50218 4.17975 9.73365 4.07865 10.9829 4.06592C12.238 4.07087 13.4696 4.17011 14.6541 4.35188C15.8682 4.55131 16.9821 4.85099 17.9547 5.24506C18.9921 5.66854 19.8528 6.22179 20.5192 6.88715C20.9791 7.34642 21.3331 7.8647 21.581 8.43019C21.8348 9.01337 21.959 9.66735 21.936 10.3627C21.9308 11.2643 21.6367 12.0069 21.0832 12.5613C20.8536 12.7912 20.565 12.9741 20.2705 13.0804C19.9347 13.2044 19.5811 13.24 19.2275 13.1696L15.9332 12.6123C15.6385 12.5654 15.3792 12.4949 15.1493 12.3949C14.8958 12.2949 14.6777 12.1595 14.5067 11.9888C14.2826 11.765 14.1292 11.4823 14.0465 11.1524C13.9756 10.9049 13.94 10.5985 13.9397 10.2568L13.9214 9.43772C13.8978 9.42595 13.8802 9.42007 13.8625 9.41419C13.668 9.3613 13.3144 9.29086 12.7251 9.24416C12.1063 9.20338 11.5347 9.17435 10.9867 9.16887C10.2973 9.17529 9.73752 9.19339 9.24258 9.2409C8.6239 9.2944 8.26451 9.37128 8.07011 9.43624L8.0524 9.39501L8.04715 10.2494C8.04742 10.6148 8.00641 10.9271 7.92411 11.1864C7.80076 11.711 7.42398 12.1591 6.8408 12.4011C6.62284 12.4897 6.36952 12.5665 6.06904 12.6197L2.7225 13.1879C2.35721 13.2589 2.00953 13.2297 1.69123 13.1003C1.37882 12.965 1.13121 12.8002 0.924817 12.5942C0.641761 12.3115 0.423473 11.964 0.281759 11.5752C0.140043 11.1864 0.0631502 10.8035 0.0451657 10.3969C0.00927551 9.68982 0.108974 9.05924 0.361904 8.4639C0.603066 7.89214 0.956219 7.36154 1.42138 6.89568ZM20.1987 11.678C20.5225 11.3537 20.6813 10.9116 20.6868 10.3401C20.704 9.81561 20.6153 9.35016 20.4323 8.93193C20.2493 8.50191 19.9839 8.1191 19.6359 7.7717C19.0875 7.2241 18.3624 6.75914 17.49 6.40624C16.6 6.04747 15.5803 5.77129 14.4606 5.59536C13.3409 5.41943 12.1741 5.32603 10.9897 5.32103C9.81709 5.32781 8.63865 5.42298 7.50741 5.60061C6.40564 5.77233 5.37465 6.05006 4.45569 6.42788C3.01835 7.00643 1.976 7.84985 1.52311 8.9521C1.34665 9.3765 1.27039 9.83029 1.30024 10.3429C1.31224 10.6258 1.36547 10.8909 1.46585 11.1678C1.54262 11.3857 1.66062 11.5742 1.81394 11.7273C1.90829 11.8215 2.02031 11.898 2.17356 11.9568C2.2266 11.9745 2.3268 12.0038 2.51533 11.9683L5.86188 11.4001C6.0622 11.3646 6.22715 11.3174 6.36853 11.2583C6.55114 11.1816 6.65721 11.1815 6.73357 10.8574C6.79236 10.6805 6.80989 10.4861 6.80971 10.2504L6.81493 9.36059C6.82048 8.90686 7.1207 8.50004 7.4918 8.32888L7.72154 8.24032C8.09269 8.12808 8.57581 8.04522 9.15325 7.99764C9.67766 7.956 10.2669 7.93198 11.0035 7.92553C11.5868 7.93098 12.1879 7.9541 12.8361 8.00075C13.4372 8.04744 13.9145 8.12368 14.2682 8.22948L14.5157 8.33536C14.6867 8.4354 14.7751 8.50015 14.8577 8.58259C15.07 8.79456 15.1821 9.05964 15.1824 9.35427L15.2007 10.2558C15.2009 10.4915 15.2246 10.6918 15.266 10.8509C15.2955 10.9746 15.3427 11.0571 15.4017 11.116C15.4489 11.1631 15.5373 11.216 15.6375 11.2572C15.7731 11.3102 15.944 11.3513 16.1385 11.3806L19.4387 11.9438C19.5802 11.9672 19.7098 11.9554 19.8394 11.9081C19.9749 11.855 20.0986 11.7783 20.1987 11.678ZM8.0465 9.38912L7.73971 8.89438L7.99352 9.46576C8.02886 9.44217 8.04652 9.41269 8.0465 9.38912Z" fill="white"/>
</svg>
