<svg width="24" height="24" viewBox="0 0 24 24" fill="none" xmlns="http://www.w3.org/2000/svg">
<path d="M21 9.75C20.59 9.75 20.25 9.41 20.25 9V3.75H15C14.59 3.75 14.25 3.41 14.25 3C14.25 2.59 14.59 2.25 15 2.25H21C21.41 2.25 21.75 2.59 21.75 3V9C21.75 9.41 21.41 9.75 21 9.75Z" fill="#292D32"/>
<path d="M9 21.75H3C2.59 21.75 2.25 21.41 2.25 21V15C2.25 14.59 2.59 14.25 3 14.25C3.41 14.25 3.75 14.59 3.75 15V20.25H9C9.41 20.25 9.75 20.59 9.75 21C9.75 21.41 9.41 21.75 9 21.75Z" fill="#292D32"/>
<path d="M13.4995 11.25C13.3095 11.25 13.1195 11.18 12.9695 11.03C12.6795 10.74 12.6795 10.26 12.9695 9.97L20.4695 2.47C20.7595 2.18 21.2395 2.18 21.5295 2.47C21.8195 2.76 21.8195 3.24 21.5295 3.53L14.0295 11.03C13.8795 11.18 13.6895 11.25 13.4995 11.25Z" fill="#292D32"/>
<path d="M2.99945 21.75C2.80945 21.75 2.61945 21.68 2.46945 21.53C2.17945 21.24 2.17945 20.76 2.46945 20.47L9.96945 12.97C10.2595 12.68 10.7395 12.68 11.0295 12.97C11.3195 13.26 11.3195 13.74 11.0295 14.03L3.52945 21.53C3.37945 21.68 3.18945 21.75 2.99945 21.75Z" fill="#292D32"/>
</svg>
